<?xml version="1.0" encoding="UTF-8"?>
<svg id="Layer_1" data-name="Layer 1" xmlns="http://www.w3.org/2000/svg" xmlns:xlink="http://www.w3.org/1999/xlink" viewBox="0 0 3000 1500">
  <defs>
    <style>
      .cls-1 {
        fill: #0f2f50;
        stroke: #000;
      }

      .cls-1, .cls-2 {
        stroke-miterlimit: 10;
      }

      .cls-3 {
        fill: url(#linear-gradient-2);
      }

      .cls-2 {
        fill: url(#linear-gradient-3);
        stroke: #112d50;
        stroke-width: .5px;
      }

      .cls-4 {
        fill: url(#linear-gradient);
      }
    </style>
    <linearGradient id="linear-gradient" x1="2627.94" y1="806.6" x2="2835.91" y2="686.53" gradientUnits="userSpaceOnUse">
      <stop offset="0" stop-color="#01808e"/>
      <stop offset=".44" stop-color="#01828f"/>
      <stop offset=".79" stop-color="#00b4ae"/>
    </linearGradient>
    <linearGradient id="linear-gradient-2" x1="2865.99" y1="744.04" x2="3001.08" y2="666.05" gradientUnits="userSpaceOnUse">
      <stop offset="0" stop-color="#01828f"/>
      <stop offset="0" stop-color="#01808e"/>
      <stop offset=".79" stop-color="#00b4ae"/>
    </linearGradient>
    <linearGradient id="linear-gradient-3" x1="326.98" y1="969.4" x2="667.98" y2="348.6" gradientUnits="userSpaceOnUse">
      <stop offset="0" stop-color="#112d50"/>
      <stop offset=".09" stop-color="#164761"/>
      <stop offset=".29" stop-color="#25898f"/>
      <stop offset=".43" stop-color="#31bbb1"/>
      <stop offset=".45" stop-color="#26ada7"/>
      <stop offset=".49" stop-color="#098b8f"/>
      <stop offset=".51" stop-color="#008088"/>
      <stop offset=".57" stop-color="#028289"/>
      <stop offset=".62" stop-color="#0c898e"/>
      <stop offset=".67" stop-color="#1c9497"/>
      <stop offset=".7" stop-color="#32a5a3"/>
      <stop offset=".74" stop-color="#4ebab2"/>
      <stop offset=".76" stop-color="#5bc3b9"/>
    </linearGradient>
  </defs>
  <path class="cls-1" d="M1041.83,584.08h60.41l11.82,241.13h-42.02l-10.51-166.46-60.4,149.39c-2.15-.07-30.17,0-42.03.1l-59.07-147.32-7.91,164.3h-45.5c.77-30.51,1.81-61.4,3.12-92.65,2.12-50.5,4.89-100,8.23-148.48h60.41l61.94,170.7,61.5-170.7Z"/>
  <path class="cls-1" d="M1181.03,748.39c-.37,2.86-.62,6.95.03,11.78.53,3.91,1.73,12.11,7.77,19.82,6.43,8.21,14.74,11.29,18.59,12.66,16.38,5.83,30.63.25,34.56-1.3,8.29-3.25,12.17-7.48,13.07-8.49,2.47-2.79,3.92-5.55,4.77-7.5,14.32-.07,28.63-.13,42.95-.2-1.83,7.95-6.04,20.64-16.67,31.9-20.47,21.71-52.75,21.92-74.53,20-91.9-8.11-102.79-128.78-38.39-169.29,33.33-20.96,85.08-15.55,110.23,12.76,19.39,21.84,22.43,76.25,19.75,77.84h-122.13ZM1259.82,720.64c-3.67-53.13-76.15-51.56-78.76.01.91,0,20.54,0,21.43,0,3.06,0,56.43-.01,57.33-.01Z"/>
  <path class="cls-1" d="M2012.31,769.73c.44,2.77,2.57,14.15,12.92,21.63,7.44,5.38,15.1,5.83,19.8,6.11,5.2.31,22.02,1.31,29.62-9.8.64-.94,5.2-7.83,2.92-15.02-2.72-8.59-13.24-13.18-21.79-14.77-18.12-3.36-48.41-6.33-63.85-15.83-27.01-16.62-26.83-63.73-1.67-82,37.27-27.06,105.58-17.66,125.45,19.27,4.87,9.06,5.78,18.16,5.73,24.64-6.41.04-12.89.06-19.42.03-8.33-.03-16.56-.12-24.7-.26-.17-2.7-.98-9.75-6.51-15.26-1.7-1.7-4.28-3.95-9.41-5.52-19.51-5.97-45-3.56-42.74,17.45.09.83.66,3.73,2.73,6.75,3.79,5.53,10.06,7.49,13.25,8.42,12.85,3.76,24.43,5.23,32.22,6.32,21.96,3.05,26.14,4.73,28.98,6.08,3,1.43,11.25,5.48,17.73,13.65,13.07,16.49,12.41,41.61,1.88,58.68-5.77,9.35-13.18,14.44-17.62,17.41-16.29,10.88-32.91,11.57-44.93,12.06-12.39.51-28,1.15-45.53-7.32-20.91-10.1-30.73-26.5-32.6-29.72-5.04-8.7-7.32-16.94-8.41-23.01h45.96Z"/>
  <path class="cls-1" d="M2341.94,648.1c9.52-.05,19.04-.1,28.56-.15-.26-10.59-.26-19.04-.21-25,.03-3.17.06-4.47.27-6.31.35-2.96,1.48-11.81,7.72-20.27,4.07-5.51,8.56-8.51,12.08-10.79,12.31-7.96,24.79-9.49,31.03-10.18,2.5-.28,9.88-.29,24.54-.35,6.61-.03,12.06-.02,15.71,0v36.32c-9.63.11-19.27.22-28.9.32-3.12.23-7.25,1.09-10.96,3.79-.6.44-1.51,1.11-2.45,2.18-3.4,3.87-3.45,8.71-3.34,10.79-.17,6.55-.34,13.09-.52,19.64h39.4v36.28h-39.4v140.84h-47.28v-140.84h-26.26v-36.28Z"/>
  <path class="cls-1" d="M2496.94,787.21c.11,1.65.32,3.47.68,5.43.28,1.48.6,2.85.96,4.11.3.87.76,2.13,1.46,3.58,2.53,5.29,7.81,10.41,9.13,11.68,1.66,1.6,3.57,3.42,6.46,5.48,1.55,1.1,5.83,4.01,11.79,6.23,2.05.76,3.81,1.26,4.64,1.49,3.42.96,5.94,1.36,6.53,1.45.97.15,2.02.31,3.44.41,1.79.12,2.77.05,5.03.02,2.47-.03,2.25.05,4.93.04,3.58-.01,3.86-.15,8.05-.21,2.47-.04,9.27-.08,11.68-.14,1.65-.04,2.84-.08,4.42-.14,1.9-.06,4.46-.16,7.52-.28-.36-12.03-.72-24.05-1.07-36.08-3.91.06-7.05.15-9.06.21-8.13.25-12.74.15-19.23-.11-2.66-.11-4.96-.24-7.25-1.68-4.38-2.75-5.81-8.19-5.81-10.49.1-31.27.2-62.55.3-93.82h42.02v-36.28h-42.02l-.03-45.41-47.25.59v44.81h-26.26l.62,38.37h28.09c.07,33.58.15,67.16.22,100.74Z"/>
  <path class="cls-1" d="M1596.7,648.07h43.96v36.25h-43.96v90.62c.28,2.64,1.32,8.61,6.07,12.14,2.94,2.18,6.06,2.51,9.12,2.76,5.95.48,14.39.86,24.98.39.13,11.17.26,22.35.4,33.52-6.12.49-15.16,1.08-26.17,1.29-13.73.27-20.7.38-25.77-1.1-18.93-5.5-28.05-21.44-28.95-23.07-2.75-4.98-4.07-9.58-4.76-12.82-.49-34.58-.98-69.16-1.47-103.75h-28.45v-36.25h28.45v-43.6c15.52-.04,31.03-.08,46.55-.11v43.71Z"/>
  <path class="cls-1" d="M1773.41,648.21c.11,5.86.19,11.77.23,17.73.07,8.65.07,17.2.01,25.65-9.3.01-14.2.02-14.2.02,0,0-5.11.14-9.78.38-4.49.23-6.74.34-7.54.49-5.27,1-8.96,3.48-10.68,4.65-1.19.82-4.41,3.14-8.05,7.98-5.48,7.29-8,15.07-9.19,20.87v99.22h-47.28v-174.56c15.74-.23,31.47-.46,47.21-.69v22.2c2.57-2.88,18.61-20.63,33.22-22.89,2.33-.36,10.38-1.22,20.14-1.18,2.5,0,4.56.08,5.91.13Z"/>
  <path class="cls-1" d="M1440.04,946.53l20.46.47c18.37,25.41,36.74,50.82,55.1,76.23.2-25.57.4-51.13.6-76.7h18.73v104.13h-21.14c-18.62-25.46-37.25-50.91-55.87-76.37l.52,76.37-18.39-.2v-103.93Z"/>
  <path class="cls-1" d="M1952.95,947.91c4.15,1.32,11.27,3.65,18.17,9.73,20.17,17.76,22.47,53.18,7,74.69-8.32,11.56-20.27,17.03-22.01,17.8-5.08,2.25-12.67,4.69-22.05,4.72-2.99,0-12.07-.21-22.48-4.76-4.44-1.94-18.14-8.16-26.08-23.1-5.25-9.87-5.49-18.88-5.6-24.48-.14-7.57-.52-27.67,14.46-42.74,16.51-16.62,41.8-17.18,58.6-11.86ZM1939.5,961.62c-10.55-1.66-18.63,2-20.18,2.73-7.4,3.49-11.36,8.72-13.29,11.33-1.65,2.24-6.22,8.93-7.25,18.16-2.12,18.93,11.78,38.43,26.2,41.82,3,.7,6.38.8,7.22.83,3.11.09,12.5.02,20.5-4.41,16.2-8.95,17.21-30.44,17.27-32.19.09-2.96.27-12.68-5.95-22.23-3.66-5.61-8.01-8.85-9.66-9.99-6.53-4.54-12.83-5.72-14.87-6.04Z"/>
  <path class="cls-1" d="M2141.22,998.78c.45,12.94,1.46,28.44-9.38,38.77-9.11,8.68-24.25,13.99-38.11,13.99-6.68,0-23.38-1.65-36.01-14.15-6.69-6.62-9.63-13.74-11.14-17.5-4.76-11.85-4.16-22.27-3.84-27.04.21-3.02.54-7.68,2.35-13.47,2.99-9.58,8.18-16.44,11.15-19.69,15.51-16.91,47.62-19.08,66.65-7.5,3.44,2.09,11.34,6.91,15.71,16.58,2.13,4.71,2.71,9.01,2.87,11.84-7.47.26-14.93.53-22.4.79-.04-2.28-.34-5.6-1.61-9.47-.12-.38-.3-.89-.45-1.29-1.41-3.67-8.71-8.43-17.67-9.44-6.83-.77-12.1.92-14.3,1.66-5.05,1.69-8.35,4.09-9.05,4.61-5.82,4.32-8.44,9.6-9.68,12.16-3.54,7.33-3.58,13.77-3.62,19.54-.04,6.06-.09,12.38,3.22,19.73,1.59,3.52,4.81,10.69,12.89,15.39,9.36,5.45,18.87,3.88,21.75,3.35,3.22-.59,12.4-2.27,18.73-10.46,4.45-5.77,5.25-11.86,5.44-14.6-9.13.26-18.26.53-27.38.79l-.32-14.52,44.22-.06Z"/>
  <path class="cls-1" d="M1068.51,946.4v16.27c-17.94.03-35.89.07-53.83.1.09,9.77.18,19.55.27,29.32,17.85.24,35.71.47,53.56.71v15.06c-17.99.13-35.98.27-53.96.4-.07,9.64-.13,19.27-.2,28.91,18.05-.27,36.11-.54,54.17-.81v15.77h-73.7c-.07-35.25-.14-70.49-.21-105.74h73.91Z"/>
  <path class="cls-1" d="M1159,946.86c18.04-6.02,33.54.39,37.86,2.37,18.82,8.64,24.31,27.64,25.57,30.98-7.08.24-12.45-.05-19.53.2-.65-2.37-2.56-8.06-5.84-11.64-6.83-7.48-16.45-7.97-18.73-8.09-12.37-.64-24.34,6.57-29.83,16.28-3.69,6.53-3.73,12.9-3.8,22.35-.06,7.84-.09,12.39,2.21,17.81,4.14,9.73,13.99,17.93,25.77,19.73,9.48,1.45,17.12-2.02,19.62-3.19,3.23-1.52,7.41-3.55,9.38-8.06.92-2.1,1.06-4.06,1.04-5.39,6.63-.05,13.27-.09,19.9-.14-.19,1.76-.6,4.23-1.57,7.06-.49,1.44-2.76,7.7-8.31,13.05-7.91,7.63-23.64,15.29-41.26,13.83-4.32-.36-14.71-1.34-23.8-7.98-4.81-3.51-9.07-8.47-10.02-9.59-1.73-2.02-3.91-4.56-6.04-8.29-2.86-4.99-4.03-9.22-4.96-12.61-.7-3.16-1.46-7.63-1.61-13.04-.08-2.85.03-4.99.12-6.55.49-8.88,2.22-16.74,2.21-16.74h0s0,0,0,0c.97-3.23,2.74-7.88,6.04-12.83,9.25-13.85,22.99-18.67,25.57-19.54Z"/>
  <path class="cls-1" d="M905.22,962.14c10.96,0,21.91,0,32.87.01-.07-4.97-.13-9.93-.2-14.9-28.12-.13-56.25-.26-84.37-.4.13,5.1.27,10.2.4,15.29,10.97,0,21.94,0,32.92-.01,0,30.15-.01,60.3-.02,90.45h18.45c-.01-30.15-.03-60.3-.04-90.45Z"/>
  <polygon class="cls-1" points="1780.99 946.66 1781.38 1035.44 1829.78 1035.07 1829.77 1050.47 1763.47 1050.47 1763.68 946.66 1780.99 946.66"/>
  <polygon class="cls-1" points="2222.57 947.12 2222.57 1050.44 2204.85 1050.44 2204.04 947.12 2222.57 947.12"/>
  <path class="cls-1" d="M1381.03,647.62l.03,17.38c28.76-21.5,65.33-25.5,92.19-9.74,34.33,20.14,36.29,62.86,37.01,78.61.58,12.63,2.43,52.76-27.73,79.03-24.89,21.69-55.33,19.74-58.26,19.51-22.08-1.76-37.28-12.59-43.24-17.36v78.28h-47.17v-245.71h47.17ZM1439.66,685.91c-2.32-.85-4.91-1.64-7.75-2.26-9.15-2.01-17.23-1.54-23.08-.61-2.72.82-6.67,2.3-10.81,5.1-6.66,4.49-10.07,9.8-11.89,12.64-9.93,15.47-8.77,37.51-8.54,41.04-.32,5.05-.53,18.88,8.34,32.96,3.22,5.11,7.43,12.31,16.34,16.72,4.63,2.3,8.96,3.1,11.92,3.41h10c2.58.01,6.28-.27,10.43-1.66,2.7-.9,4.91-2.04,6.6-3.07,0,0,8.29-4.69,14.79-13.23,12.51-16.46,10.56-40.03,10.24-43.42-.01-5.19-.76-16.5-7.82-28.42-6.21-10.48-14.35-16.43-18.75-19.2Z"/>
  <path class="cls-1" d="M1790.86,697.42c-.11-2.93,3.42-18.68,17.72-31.77,25.66-23.49,64.07-18.33,70.48-17.49,19.78,2.59,31.35,10.5,34.23,12.56,7.99,5.7,12.37,11.73,13.29,13.02,1.76,2.48,5.22,7.43,7.25,14.6,2.19,7.76,2.39,16.97,2.42,17.17v118.21l-40.07.59c.07-7.17.13-14.34.2-21.51-5.82,6.51-14.37,13.96-26.18,18.94-2.2.93-5.78,2.31-10.4,3.47-12.76,3.2-24.07,2.36-31.88.99-4.26-.66-14.86-2.89-24.36-11.56-12.26-11.19-14.12-25.3-14.5-29.01-.49-5.54-.97-19.64,7.45-34.34,8.3-14.48,21.61-23.18,31.41-26.35,2.6-.84,8.21-2.35,15.1-3.19,5.41-.66,9.51-.65,11.27-.65,9.09,0,23.24-.29,42.49-.79h0l.86-18.15c-.46-2.34-1.53-6.19-4.32-10.1-4.06-5.69-9.33-8.13-12.24-9.44-6.33-2.84-12.14-3.12-15.53-3.01h0c-3.77-.15-9.92.16-16.49,3.19-3.41,1.57-8.36,3.86-11.68,9.29-2.46,4.03-2.94,8-3.02,10.26-28.27.13-43.29.2-43.29.2h0s-.2-5.11-.2-5.13ZM1897.78,771.82l-.4-25.46-47.32-.2c-2.64.83-10.9,3.81-16.71,12.24-4.8,6.95-5.37,13.89-5.44,16.77.31,2.01,1.8,10.06,9.26,16.19,6.99,5.74,14.72,6.09,16.91,6.11,4.7-.06,13.29-.81,22.57-5.5,12.51-6.33,18.79-16.06,21.13-20.16Z"/>
  <path class="cls-1" d="M2270.1,648.91c2.46.73,23.25,10.6,26.29,12.73,52.26,36.67,44.25,147.86-30.07,162.95-99.46,20.2-141.9-60.51-114.68-127.32,16.38-40.22,67.56-63.57,118.46-48.37ZM2236.73,792.46c2.35.14,9.48.39,18.06-2.41,0,0,7.77-2.54,14.23-7.38,11.01-8.24,18.14-25.35,17.99-45.26.3-3.66,1.63-24.06-13.42-39.31-1.43-1.45-8.66-8.58-20.76-12.24-4.17-1.26-19.81-6-35.1,2.03-9.83,5.16-14.66,13.05-17.43,17.68-7.86,13.18-7.87,26.12-7.52,31.84-.98,20.16,7.02,38.6,21.21,47.63,10.51,6.69,22.75,7.42,22.75,7.42Z"/>
  <path class="cls-1" d="M2328.57,989.99c2.54,0,5.21.02,11.59.02,5.81,0,11.61,0,17.39-.02v16.68c-17.99.13-35.98.26-53.96.39-.07,9.41-.13,18.81-.2,28.22,18.05-.26,36.11-.53,54.17-.79v15.39h-73.7c-.07-34.4-.14-68.81-.21-103.21,24.64-.13,49.27-.15,73.91,0v15.89c-17.94.03-35.89.06-53.83.1h0s-.08,8.85-.12,13.8c-.04,4.6-.08,9.2-.12,13.8,10.75-.23,19.25-.27,25.1-.27Z"/>
  <path class="cls-1" d="M1666.79,947.91c4.15,1.32,11.27,3.65,18.17,9.73,20.17,17.76,22.47,53.18,7,74.69-8.32,11.56-20.27,17.03-22.01,17.8-5.08,2.25-12.67,4.69-22.05,4.72-2.99,0-12.07-.21-22.48-4.76-4.44-1.94-18.14-8.16-26.08-23.1-5.25-9.87-5.49-18.88-5.6-24.48-.14-7.57-.52-27.67,14.46-42.74,16.51-16.62,41.8-17.18,58.6-11.86ZM1653.34,961.62c-10.55-1.66-18.63,2-20.18,2.73-7.4,3.49-11.36,8.72-13.29,11.33-1.65,2.24-6.22,8.93-7.25,18.16-2.12,18.93,11.78,38.43,26.2,41.82,3,.7,6.38.8,7.22.83,3.11.09,12.5.02,20.5-4.41,16.2-8.95,17.21-30.44,17.27-32.19.09-2.96.27-12.68-5.95-22.23-3.66-5.61-8.01-8.85-9.66-9.99-6.53-4.54-12.83-5.72-14.87-6.04Z"/>
  <path class="cls-1" d="M1301.96,991.86h54.97v-44.99h17.32v103.7h-16.11v-43.91h-55.07v43.91h-18.73v-102.91h17.42c0,44.21.2,44.21.2,44.21Z"/>
  <path class="cls-1" d="M2464.91,945.05c3.01.03,12.39.48,21.01,7.24,11.03,8.64,12.41,21.01,12.62,23.29-6.35.04-12.71.09-19.06.13-.4-2.23-1.72-7.61-6.44-11.45-3.1-2.52-6.54-3.46-8.69-4.05-3.06-.84-5.74-1.04-7.62-1.05-4.38-.21-7.76.69-9.73,1.38-2.93,1.03-6.48,2.27-8.96,5.82-2.65,3.79-2.38,7.8-2.32,8.55.37,4.37,2.88,7.2,3.62,8.03,4.27,4.73,10.58,4.84,17.38,5.66,7.79.93,22.67,2.71,31.34,9.27,4.26,3.22,9.25,9.28,11.28,21.78-.11,3.57-.92,14.05-8.99,22.63-4.26,4.53-9.79,7.15-11.07,7.73-.1.05-.21.09-.21.09-1.22.54-2.22.91-2.9,1.14-3.45.83-6.3,1.2-8.32,1.38-1.72.16-3.5.23-5.55.32-2.04.09-3.74.14-4.93.16-2.33.05-4.26.02-5.64-.02-3.4-.09-5.29-.14-7.84-.55-1.11-.18-2.82-.46-5.01-1.16-.79-.25-2.59-.85-4.76-1.94,0,0-3.23-1.61-6.04-3.88-10.4-8.38-13.9-27.49-13.91-27.54-.03-.14-.05-.22-.05-.22h0l20.14.53c.24,1.84,1.19,7.35,5.91,12.17,5.16,5.26,11.4,6.21,13.19,6.41,3.3.38,6.8,1.49,11.02.38,5.5-1.45,10.09-5.08,10.12-5.02.01.02-.44.31-.8.55.88-.82,1.47-1.57,1.84-2.08,1.83-2.51,2.67-5.36,3.56-8.37,0,0,0,0,0,0,0,0,.52-4.28-1.33-7.36-1.42-2.37-4.28-4.14-4.28-4.14l-10.23-2.87s-4.82-.78-8.3-1.45c-6.83-1.31-7.51-1.63-13.32-3.22-5.3-1.45-6.58-1.99-7.39-2.37-3.4-1.57-7.35-4.13-10.73-8.29-6.57-8.08-6.64-16.84-6.58-19.21.27-10.73,6.75-17.56,8.46-19.34,1.25-1.3,4.81-4.75,10.48-7.1,5.37-2.23,9.82-2.39,16.67-2.57,5.12-.13,9.39.23,12.38.59Z"/>
  <path class="cls-4" d="M2638.69,825.21l94.85-240.87,43.14-.4,98.39,241.27h-45.96l-23.93-55.61-95.74,1.07-20.85,54.55h-49.9ZM2722.74,729.19h68.29l-32.86-87.5-35.43,87.5Z"/>
  <path class="cls-3" d="M2954.3,824.13v-239.12l-40.2.19-2.26,238.23,42.47.7Z"/>
  <path class="cls-2" d="M373.98,567.12c-7.59-9.57-15.22-19.15-22.81-28.72-.35-34.46-.7-68.9-1.04-103.36-.79-6.63-3.79-23.95-18.16-39.33-20.66-22.1-48.72-22.87-53.7-22.93-4.78.2-39.9,2.34-62.76,32-20.44,26.52-16.17,55.73-15.3,61-35.5,5-65.51,27.88-78.17,59.83-17.63,44.52,7.66,83.15,10.2,86.88-25.67,21.5-37.45,54.64-30.43,86.21,9.75,43.81,50.46,61.29,54.3,62.85-1.93,25.92,8.07,39.48,11.93,44.04,4.71,5.55,10.38,9.51,18.16,14.95,5.14,3.61,14.45,9.74,27.85,15.93,4.43,2.05,7.84,3.37,9.96,4.19,36.22,14.18,47.89,17.67,60.74,23.91,11.2,5.44,19.54,11.34,35.78,23.7,14.2,10.8,32.91,26.21,53.78,46.9-.12-122.69-.22-245.36-.35-368.05ZM343.75,642.55l-6.09,1.66c-21.32-21.33-42.65-42.65-63.96-63.98-17.39-.73-34.79-1.44-52.19-2.17-5.43-3.28-10.86-6.54-16.28-9.8-1.72-.31-4.86-.63-8.55.31-4.62,1.19-7.44,3.69-8.01,4.21-3.23,2.94-4.41,6.24-4.74,7.26-.26.77-1.09,3.56-.65,7.17.84,6.92,5.61,11.08,7.1,12.33,1.64,1.4,3.98,3.33,7.41,3.7,1.81.2,3.31-.08,3.96-.21,2.52-.5,4.35-1.58,5.36-2.31,3.33.2,6.67.35,10.04.51,15.28.69,30.21,1.01,44.77,1.01.13.14.33.34.47.48,2.83,2.94,11.54,12.01,23.15,24.91,5.24,5.85,13.81,15.38,24.65,28.38,2.56,3.1,4.69,5.68,6.21,7.56,9.01.63,17.98,1.24,26.99,1.86-.11,25.83-.21,51.67-.31,77.5-11.97-2.41-23.93-4.84-35.9-7.25-4.24-7.55-12.72-11.76-20.99-10.53-9.62,1.4-17.17,9.89-17.27,20.06.04,1.5.57,11.3,8.8,17.46,7.72,5.77,19.04,5.98,28.1.31l36.24,11.85v90.83h-1.36c-10.71-7.28-22.22-13.92-34.54-20.4-16.13-8.46-28.93-14.19-42.05-19.92-13.71-6-25.46-10.7-34.15-14.06-5.12-2.45-23.33-11.38-34.87-21.64-2.17-1.94-5.44-5-7.43-9.87-.65-1.58-3.03-7.26-1.36-13.48.25-.89.53-1.63.88-2.33.27-.5,1.03-2.25,2.73-4.49,1.86-2.51,4-4.49,5.83-5.94.94-.07,5.93-.56,9.5-4.76,2.71-3.18,3.98-7.81,2.58-11.76-2.27-6.49-11.09-9.73-17.44-8.58-5.96,1.09-7.48,5.58-14.45,6.75-4.49.77-8.41-.31-10.89-1.27-21.32-7.57-36.39-26-38.67-47.27-3.61-33.91,29.64-56.28,35.6-57.9.43-.12,3.09-.5,5.47-2.43.38-.33,2.07-1.75,3.08-4.26.08-.17,1.74-4.43,0-8.38-1.91-4.36-6.95-6.07-8.17-6.57-10.53-4.32-23.5-36.19-15.32-63.95,7.98-27.1,35.03-47.32,67.55-49.7,8.37,3.22,16.77,6.41,25.14,9.64.67,0,6.77-.07,10.59-5.02,3.16-4.13,2.52-8.68,2.37-9.56-5.85-6.98-11.68-13.98-17.53-20.96-1.15-2.45-9.1-19.85-.08-38.58,10.08-20.98,32.53-25.22,34.62-25.59,2.38-.54,18.66-3.99,33.45,6.5,13.75,9.74,15.99,24.3,16.6,26.81v118.74c8.29,6.47,16.58,12.95,24.87,19.42,0,0-.77,63-.84,67.69ZM298.77,520.17c0,10.54-8.8,19.09-19.64,19.09s-19.63-8.55-19.63-19.09,8.78-19.07,19.63-19.07,19.64,8.53,19.64,19.07ZM254.99,680.05c0,10.54-8.8,19.08-19.64,19.08s-19.64-8.54-19.64-19.08,8.8-19.09,19.64-19.09,19.64,8.55,19.64,19.09ZM375.62,1170.77c-28.32-26.14-79.32-66.65-154.07-94.45-72.92-27.11-137.13-30.53-175.85-29.73v-228.06c50.81,3.32,150.18,17.21,244.84,84.88,36.59,26.16,64.13,54.38,84.38,79.14l.7,188.22ZM734.09,818.52v228.06c-38.72-.8-102.93,2.62-175.84,29.73-74.75,27.8-125.74,68.31-154.08,94.45l.7-188.22c20.25-24.76,47.79-52.98,84.38-79.14,94.66-67.67,194.03-81.56,244.84-84.88ZM624.55,652.48c-29.51,0-53.44,22.72-53.44,50.73,0,7.15.59,14.12,3.41,20.3l.02.04-85.96,79.46-.07-54.48,62.99-65.99q.04-58.11,0-58.11h.04s17.09-16.7,25.36-24.12c9.69,7.45,21.13,11.26,34.33,11.26,30.09,0,54.47-22.69,54.47-50.67s-24.38-50.65-54.47-50.65-55.67,21.97-55.67,49.96c0,7.44.72,14.15,3.94,20.6l-33.26,29.61c-1.91,1.94-2.97,4.51-2.97,7.19v50.39c0,2.68-1.07,5.26-2.99,7.19l-57.3,57.91c-1.89,1.91-2.97,4.5-2.97,7.17v130.6c0,5.77,4.86,10.42,10.81,10.35l7.7-.09c5.87-.07,10.59-4.79,10.51-10.49l-.29-21.98c-.04-2.88,1.15-5.64,3.31-7.64l83.81-77.35,19.74-17.28s18.41,7.56,28.92,7.56c29.52,0,53.43-22.72,53.43-50.74s-23.91-50.73-53.43-50.73ZM603.17,541.78c11.8-5.61,25.67-1.6,30.98,8.97,5.32,10.54.07,23.65-11.74,29.26-11.8,5.64-25.67,1.62-31-8.95-5.3-10.55-.04-23.65,11.76-29.28ZM632.43,723.18c-11.8,5.6-25.68,1.6-31.01-8.95-5.3-10.57-.04-23.69,11.76-29.28,11.81-5.61,25.68-1.61,31.01,8.93,5.3,10.57.04,23.69-11.76,29.3ZM538.44,403.39c-29.36,0-53.15,24.4-53.15,54.5,0,15.64,6.42,29.71,16.68,39.63l-34.33,36.55c-.62.67-.94,1.5-.94,2.39l-.64,114.23c0,1.12-8.29,9.02-10.17,11.23-1.42,1.66-5.71,7.59-5.71,8.37v15.33c.14.73.28,1.43.41,2.14.55,1.33,1.68,3.28,3.92,4.76.36.24,1.8,1.16,3.37,1.45,3.94.67,7.73-2.98,9.3-4.53,13.4-13.24,20.11-19.87,26.45-27.92,0,0,.43-.58.86-1.16.41-.6.83-1.19.83-1.2.05-37.42-.61-74.93-.57-112.34,0-.94.39-1.87,1.1-2.55,10.34-10.08,23.22-22.48,33.67-32.63,2.91.51,5.87.77,8.92.77,29.36,0,53.17-24.42,53.17-54.52s-23.81-54.5-53.17-54.5ZM540.1,480.28c-12.1,0-21.9-10.35-21.9-23.12s9.8-23.12,21.9-23.12,21.88,10.35,21.88,23.12-9.79,23.12-21.88,23.12ZM419.78,329.23c-30.57,0-55.36,25.18-55.36,56.25,0,25.86,17.21,47.64,40.63,54.18v496.21l26.25-25.3s-.02-4.96.33-470.18c24.89-5.5,43.52-28.01,43.52-54.91,0-31.06-24.79-56.25-55.37-56.25ZM418.08,412.83c-13.26,0-24.03-11.76-24.03-26.27s10.77-26.29,24.03-26.29,24.05,11.77,24.05,26.29-10.77,26.27-24.05,26.27Z"/>
</svg>