<?xml version="1.0" encoding="UTF-8"?>
<svg id="Layer_1" data-name="Layer 1" xmlns="http://www.w3.org/2000/svg" xmlns:xlink="http://www.w3.org/1999/xlink" viewBox="-98 -98.5 2196 2196">
  <rect x="-150" y="-150" width="2300" height="2300" fill="#ffffff"/>
  <defs>
    <style>
      .cls-1 {
        fill: url(#linear-gradient);
        stroke: #112d50;
        stroke-miterlimit: 10;
        stroke-width: .5px;
      }
    </style>
    <linearGradient id="linear-gradient" x1="864.78" y1="1479.87" x2="1581.05" y2="175.9" gradientUnits="userSpaceOnUse">
      <stop offset="0" stop-color="#112d50"/>
      <stop offset=".09" stop-color="#164761"/>
      <stop offset=".29" stop-color="#25898f"/>
      <stop offset=".43" stop-color="#31bbb1"/>
      <stop offset=".45" stop-color="#26ada7"/>
      <stop offset=".49" stop-color="#098b8f"/>
      <stop offset=".51" stop-color="#008088"/>
      <stop offset=".57" stop-color="#028289"/>
      <stop offset=".62" stop-color="#0c898e"/>
      <stop offset=".67" stop-color="#1c9497"/>
      <stop offset=".7" stop-color="#32a5a3"/>
      <stop offset=".74" stop-color="#4ebab2"/>
      <stop offset=".76" stop-color="#5bc3b9"/>
    </linearGradient>
  </defs>
  <path class="cls-1" d="M963.17,628.02c-17.57-19.47-35.21-38.94-52.79-58.42-.81-70.09-1.61-140.14-2.42-210.23-1.82-13.49-8.77-48.71-42.03-79.99-47.81-44.96-112.76-46.53-124.28-46.63-11.05.4-92.35,4.76-145.26,65.09-47.31,53.95-37.43,113.35-35.4,124.07-82.15,10.16-151.61,56.71-180.91,121.7-40.81,90.55,17.73,169.13,23.61,176.71-59.42,43.73-86.67,111.14-70.43,175.36,22.57,89.11,116.79,124.65,125.68,127.85-4.47,52.72,18.68,80.31,27.61,89.57,10.89,11.28,24.02,19.34,42.03,30.41,11.91,7.34,33.44,19.82,64.46,32.4,10.25,4.18,18.15,6.86,23.05,8.51,83.83,28.84,110.83,35.94,140.58,48.63,25.91,11.07,45.23,23.06,82.82,48.2,32.87,21.97,76.16,53.31,124.46,95.39-.28-249.55-.51-499.07-.81-748.61ZM893.21,781.46l-14.09,3.38c-49.33-43.39-98.71-86.75-148.02-130.13-40.26-1.49-80.52-2.93-120.8-4.42-12.57-6.68-25.13-13.3-37.68-19.92-3.98-.64-11.24-1.28-19.78.64-10.69,2.42-17.23,7.5-18.54,8.57-7.49,5.99-10.2,12.69-10.96,14.76-.6,1.57-2.53,7.24-1.5,14.58,1.93,14.07,12.99,22.53,16.42,25.09,3.8,2.85,9.21,6.78,17.16,7.53,4.19.4,7.67-.16,9.17-.43,5.83-1.01,10.06-3.22,12.41-4.71,7.72.4,15.43.72,23.24,1.04,35.35,1.41,69.92,2.05,103.62,2.05.3.29.76.69,1.08.98,6.54,5.99,26.72,24.42,53.57,50.68,12.14,11.89,31.97,31.28,57.05,57.72,5.92,6.3,10.85,11.54,14.37,15.38,20.84,1.28,41.62,2.53,62.46,3.78-.25,52.54-.48,105.1-.71,157.64-27.71-4.89-55.39-9.84-83.1-14.74-9.81-15.35-29.43-23.91-48.57-21.41-22.27,2.85-39.73,20.11-39.96,40.81.09,3.06,1.31,22.98,20.36,35.51,17.87,11.73,44.06,12.16,65.04.64l83.88,24.1v184.75h-3.16c-24.78-14.82-51.43-28.3-79.94-41.5-37.33-17.21-66.95-28.86-97.33-40.51-31.74-12.21-58.91-21.76-79.04-28.6-11.86-4.97-53.98-23.14-80.7-44.03-5.02-3.94-12.6-10.16-17.2-20.08-1.5-3.22-7-14.76-3.16-27.43.58-1.81,1.22-3.33,2.03-4.74.62-1.01,2.4-4.58,6.31-9.12,4.31-5.11,9.26-9.12,13.5-12.08,2.16-.13,13.73-1.14,21.99-9.68,6.26-6.46,9.21-15.88,5.96-23.91-5.25-13.19-25.66-19.79-40.37-17.45-13.8,2.21-17.32,11.36-33.44,13.73-10.39,1.57-19.46-.64-25.2-2.58-49.33-15.4-84.22-52.88-89.5-96.14-8.36-68.98,68.61-114.47,82.38-117.76.99-.24,7.16-1.01,12.67-4.95.88-.67,4.79-3.56,7.14-8.67.18-.35,4.03-9.02,0-17.05-4.42-8.86-16.08-12.34-18.91-13.35-24.37-8.78-54.4-73.61-35.44-130.08,18.47-55.12,81.07-96.24,156.33-101.08,19.37,6.54,38.81,13.03,58.18,19.61,1.54,0,15.66-.13,24.51-10.21,7.32-8.41,5.83-17.66,5.48-19.45-13.54-14.21-27.04-28.44-40.58-42.64-2.67-4.97-21.05-40.38-.18-78.47,23.33-42.67,75.29-51.29,80.12-52.06,5.5-1.09,43.18-8.11,77.41,13.22,31.83,19.82,37.01,49.43,38.42,54.53v241.51c19.18,13.17,38.37,26.34,57.55,39.5,0,0-1.77,128.14-1.93,137.69ZM789.11,532.52c0,21.44-20.36,38.84-45.46,38.84s-45.44-17.4-45.44-38.84,20.31-38.78,45.44-38.78,45.46,17.34,45.46,38.78ZM687.77,857.72c0,21.44-20.36,38.81-45.46,38.81s-45.46-17.37-45.46-38.81,20.36-38.84,45.46-38.84,45.46,17.4,45.46,38.84ZM966.95,1855.83c-65.55-53.18-183.58-135.56-356.57-192.11-168.77-55.14-317.37-62.09-406.98-60.46v-463.87c117.6,6.76,347.58,35.01,566.65,172.64,84.68,53.2,148.41,110.61,195.28,160.96l1.61,382.85ZM1796.6,1139.38v463.87c-89.61-1.62-238.21,5.32-406.96,60.46-173.01,56.55-291.02,138.94-356.59,192.11l1.61-382.85c46.87-50.36,110.59-107.76,195.28-160.96,219.07-137.64,449.06-165.89,566.65-172.64ZM1543.07,801.65c-68.29,0-123.68,46.21-123.68,103.19,0,14.55,1.36,28.73,7.9,41.29l.05.08-198.94,161.63-.16-110.82,145.79-134.23q.09-118.19,0-118.19h.09s39.54-33.97,58.68-49.05c22.43,15.16,48.89,22.9,79.46,22.9,69.65,0,126.07-46.15,126.07-103.05s-56.43-103.03-126.07-103.03-128.84,44.69-128.84,101.62c0,15.14,1.66,28.78,9.12,41.9l-76.97,60.23c-4.42,3.94-6.86,9.18-6.86,14.63v102.49c0,5.45-2.49,10.69-6.91,14.63l-132.61,117.79c-4.38,3.88-6.86,9.15-6.86,14.58v265.64c0,11.73,11.24,21.2,25.01,21.04l17.83-.19c13.59-.13,24.51-9.74,24.32-21.33l-.67-44.72c-.09-5.85,2.67-11.47,7.67-15.54l193.97-157.32,45.69-35.14s42.61,15.38,66.93,15.38c68.31,0,123.65-46.21,123.65-103.21s-55.34-103.19-123.65-103.19ZM1493.6,576.49c27.31-11.41,59.42-3.25,71.7,18.25,12.32,21.44.16,48.1-27.18,59.51-27.31,11.47-59.42,3.3-71.74-18.2-12.28-21.47-.09-48.1,27.22-59.56ZM1561.31,945.45c-27.31,11.39-59.44,3.25-71.76-18.2-12.28-21.49-.09-48.18,27.22-59.56,27.34-11.41,59.44-3.27,71.76,18.17,12.28,21.49.09,48.18-27.22,59.59ZM1343.78,295c-67.94,0-123.01,49.64-123.01,110.85,0,31.82,14.86,60.44,38.6,80.6l-79.46,74.35c-1.43,1.36-2.16,3.06-2.16,4.87l-1.47,232.34c0,2.29-19.18,18.35-23.54,22.85-3.29,3.38-13.22,15.43-13.22,17.02v31.18c.32,1.49.64,2.9.94,4.36,1.27,2.71,3.89,6.68,9.07,9.68.83.48,4.17,2.37,7.81,2.95,9.12,1.36,17.9-6.07,21.53-9.2,31.02-26.92,46.55-40.41,61.22-56.79,0,0,.99-1.17,1.98-2.37.94-1.22,1.91-2.42,1.91-2.45.12-76.11-1.4-152.4-1.31-228.5,0-1.92.9-3.8,2.56-5.19,23.93-20.51,53.73-45.73,77.91-66.37,6.72,1.04,13.59,1.57,20.64,1.57,67.94,0,123.05-49.66,123.05-110.9s-55.11-110.85-123.05-110.85ZM1347.63,451.39c-28.01,0-50.69-21.04-50.69-47.03s22.69-47.03,50.69-47.03,50.65,21.04,50.65,47.03-22.66,47.03-50.65,47.03ZM1069.16,144.17c-70.75,0-128.12,51.22-128.12,114.4,0,52.6,39.82,96.91,94.04,110.21v1009.28l60.76-51.46c0-.08-.05-10.08.76-956.34,57.6-11.19,100.71-56.98,100.71-111.69,0-63.18-57.37-114.4-128.14-114.4ZM1065.22,314.21c-30.7,0-55.62-23.91-55.62-53.44s24.92-53.47,55.62-53.47,55.67,23.94,55.67,53.47-24.92,53.44-55.67,53.44Z"/>
</svg>